<svg width="680" height="680" viewBox="0 0 680 680" fill="none" xmlns="http://www.w3.org/2000/svg">
<path d="M189.388 387.175C189.388 415.893 184.146 440.411 173.632 460.763C163.118 481.115 148.547 496.724 129.889 507.653C111.231 518.582 89.611 524.479 65 525.377V462.109C83.8063 460.923 99.1474 454.641 111.024 443.264C122.9 431.886 128.852 412.752 128.852 385.829V126.478H189.388V387.175Z" fill="#F24444" fill-opacity="0.4"/>
<path d="M266.094 293.121C266.094 270.269 270.092 248.609 278.118 228.141C286.144 207.674 297.25 189.559 311.495 173.766C325.741 157.972 342.237 145.563 361.043 136.538C379.849 127.513 400.018 123 421.579 123C443.139 123 462.893 127.513 481.699 136.538C500.506 145.563 517.15 157.972 531.662 173.766C546.174 189.559 557.517 207.674 565.661 228.141C573.806 248.609 577.893 270.269 577.893 293.121C577.893 315.974 573.806 338.537 565.661 359.004C557.517 379.471 546.174 397.425 531.662 412.928C517.15 428.432 500.506 440.519 481.699 449.254C462.893 457.989 442.873 462.34 421.579 462.34C400.285 462.34 379.849 457.989 361.043 449.254C342.237 440.519 325.741 428.432 311.495 412.928C297.25 397.425 286.144 379.471 278.118 359.004C270.092 338.537 266.094 316.586 266.094 293.121Z" fill="#F24444" fill-opacity="0.4"/>
<path d="M226.495 422.109C226.495 449.932 221.253 473.687 210.74 493.405C200.226 513.123 185.655 528.246 166.997 538.835C148.338 549.424 126.719 555.137 102.108 556.007V494.709C120.914 493.56 136.255 487.474 148.131 476.45C160.007 465.427 165.96 446.889 165.96 420.805V169.529H226.495V422.109Z" fill="#F24444"/>
<path d="M303.201 333.051C303.201 311.035 307.199 290.167 315.225 270.449C323.251 250.731 334.357 233.279 348.603 218.064C362.848 202.848 379.344 190.893 398.151 182.198C416.957 173.504 437.126 169.156 458.686 169.156C480.247 169.156 500.001 173.504 518.807 182.198C537.613 190.893 554.257 202.848 568.769 218.064C583.281 233.279 594.595 250.731 602.769 270.449C610.913 290.167 615 311.035 615 333.051C615 355.067 610.913 376.804 602.769 396.522C594.595 416.24 583.281 433.536 568.769 448.472C554.257 463.409 537.584 475.053 518.807 483.468C500.001 491.884 479.98 496.076 458.686 496.076C437.392 496.076 416.957 491.884 398.151 483.468C379.344 475.053 362.848 463.409 348.603 448.472C334.357 433.536 323.251 416.24 315.225 396.522C307.199 376.804 303.201 355.657 303.201 333.051Z" fill="#F24444"/>
</svg>
